<svg width="714" height="1425" viewBox="0 0 714 1425" fill="none" xmlns="http://www.w3.org/2000/svg">
<g opacity="0.15">
<path d="M0.573164 30.2797L-681.68 712.351L0.573164 1394.42L682.826 712.351L0.573164 30.2797Z" fill="#3D3D3D"/>
<path d="M1.91653 1425.45L-20.2324 1404.69L-5.00499 1389.47L-13.3109 1379.78L-7.77377 1374.24L1.91653 1382.55L10.222 1374.24L15.7596 1379.78L7.45367 1389.47L22.6811 1404.69L1.91653 1425.45Z" fill="#A3A3A3"/>
<path d="M10.222 51.2058L1.91653 42.9025L-7.77377 51.2058L-13.3109 45.6706L-5.00499 35.9828L-20.2324 22.1435L1.91653 0L22.6811 22.1435L7.45367 35.9828L15.7596 45.6706L10.222 51.2058Z" fill="#A3A3A3"/>
<path d="M649.772 708.578L637.313 696.123L667.768 665.676L680.227 678.131L649.772 708.578ZM624.855 683.667L612.396 671.211L642.85 640.766L655.309 653.22L624.855 683.667ZM599.937 658.757L587.478 646.301L617.933 615.854L630.392 628.31L599.937 658.757ZM573.635 632.461L561.177 620.007L591.631 589.56L604.09 602.015L573.635 632.461ZM548.718 607.551L536.259 595.095L566.714 564.649L579.172 577.104L548.718 607.551ZM523.8 582.64L511.341 570.184L541.796 539.738L554.255 552.193L523.8 582.64ZM498.883 557.729L486.424 545.274L516.879 514.827L529.337 527.283L498.883 557.729ZM472.581 531.434L460.122 518.979L490.577 488.533L503.036 500.988L472.581 531.434ZM447.663 506.524L435.205 494.068L465.66 463.621L478.118 476.077L447.663 506.524ZM422.746 481.613L410.287 469.157L440.742 438.71L453.201 451.166L422.746 481.613ZM397.828 456.701L385.37 444.247L415.825 413.8L428.283 426.256L397.828 456.701ZM371.527 430.407L359.068 417.951L389.523 387.505L401.981 399.96L371.527 430.407ZM346.609 405.497L334.151 393.041L364.605 362.594L377.064 375.05L346.609 405.497ZM321.692 380.585L309.233 368.13L339.688 337.683L352.146 350.139L321.692 380.585ZM296.774 355.674L284.316 343.219L314.77 312.773L327.229 325.228L296.774 355.674ZM270.473 329.38L258.014 316.924L288.468 286.478L300.927 298.933L270.473 329.38ZM245.555 304.469L233.096 292.014L263.551 261.567L276.01 274.023L245.555 304.469ZM220.638 279.558L208.179 267.103L238.633 236.656L251.092 249.111L220.638 279.558ZM194.336 253.264L181.877 240.808L212.332 210.361L224.79 222.817L194.336 253.264ZM169.418 228.352L156.959 215.897L187.414 185.45L199.873 197.906L169.418 228.352ZM144.501 203.441L132.042 190.987L162.497 160.54L174.956 172.995L144.501 203.441ZM119.583 178.531L107.124 166.075L137.579 135.629L150.038 148.084L119.583 178.531ZM93.2813 152.236L80.8227 139.781L111.278 109.334L123.736 121.79L93.2813 152.236ZM68.364 127.325L55.9054 114.87L86.3598 84.4233L98.8189 96.8782L68.364 127.325ZM43.4467 102.414L30.9876 89.9586L61.4425 59.5126L73.9011 71.9676L43.4467 102.414ZM18.529 77.5036L6.07031 65.0479L36.5252 34.6011L48.9838 47.0569L18.529 77.5036Z" fill="#A3A3A3"/>
<path d="M692.685 733.487L677.458 719.648L669.152 727.952L662.23 721.032L671.921 712.728L662.23 704.425L669.152 697.505L677.458 707.193L692.685 691.969L713.45 712.728L692.685 733.487Z" fill="#A3A3A3"/>
<path d="M35.1404 1390.86L4.68555 1360.41L17.1442 1347.96L47.5991 1378.4L35.1404 1390.86ZM60.0577 1365.95L29.6033 1335.5L42.0619 1323.04L72.5164 1353.49L60.0577 1365.95ZM86.3594 1341.04L55.905 1310.59L68.3636 1298.13L98.8185 1328.58L86.3594 1341.04ZM111.277 1316.12L80.8223 1285.68L93.281 1273.22L123.736 1303.67L111.277 1316.12ZM136.194 1289.83L105.74 1259.38L118.199 1246.93L148.653 1277.37L136.194 1289.83ZM161.112 1264.92L130.657 1234.47L143.116 1222.02L173.571 1252.46L161.112 1264.92ZM187.414 1240.01L156.959 1209.56L169.418 1197.11L199.873 1227.55L187.414 1240.01ZM212.331 1215.1L181.877 1184.65L194.335 1172.2L224.79 1202.64L212.331 1215.1ZM237.249 1188.8L206.794 1158.36L219.253 1145.9L249.708 1176.35L237.249 1188.8ZM262.166 1163.89L231.711 1133.45L244.17 1120.99L274.625 1151.44L262.166 1163.89ZM288.468 1138.98L258.014 1108.53L270.472 1096.08L300.927 1126.53L288.468 1138.98ZM313.386 1112.69L282.931 1082.24L295.39 1069.78L325.844 1100.23L313.386 1112.69ZM338.303 1087.78L307.848 1057.33L320.307 1044.87L350.762 1075.32L338.303 1087.78ZM364.605 1062.86L334.15 1032.42L346.609 1019.96L377.063 1050.41L364.605 1062.86ZM389.522 1037.95L359.068 1007.51L371.526 995.051L401.981 1025.5L389.522 1037.95ZM414.44 1011.66L383.985 981.212L396.444 968.756L426.898 999.203L414.44 1011.66ZM439.357 986.748L408.903 956.301L421.361 943.846L451.816 974.292L439.357 986.748ZM465.659 961.837L435.204 931.391L447.663 918.935L478.118 949.382L465.659 961.837ZM490.577 936.926L460.122 906.479L472.581 894.024L503.035 924.471L490.577 936.926ZM515.494 910.632L485.039 880.185L497.498 867.729L527.953 898.176L515.494 910.632ZM540.412 885.72L509.957 855.274L522.415 842.819L552.87 873.265L540.412 885.72ZM566.713 860.81L536.258 830.363L548.718 817.908L579.172 848.355L566.713 860.81ZM591.631 835.899L561.176 805.452L573.635 792.997L604.09 823.443L591.631 835.899ZM616.548 809.604L586.093 779.158L598.552 766.702L629.007 797.149L616.548 809.604ZM642.85 784.693L612.395 754.246L624.854 741.791L655.309 772.238L642.85 784.693ZM667.767 759.782L637.313 729.336L649.772 716.881L680.226 747.327L667.767 759.782Z" fill="#A3A3A3"/>
<path d="M1.91616 1231.7L-21.6172 1208.18L-5.00536 1191.57L-14.6957 1181.88L-7.77414 1176.35L1.91616 1184.65L10.2216 1176.35L17.1432 1181.88L8.83768 1191.57L24.0647 1208.18L1.91616 1231.7Z" fill="#A3A3A3"/>
<path d="M-7.77414 250.495L-14.6957 243.575L-5.00536 233.887L-21.6172 217.28L1.91616 193.753L24.0647 217.28L8.83768 233.887L17.1432 243.575L10.2216 250.495L1.91616 240.807L-7.77414 250.495Z" fill="#A3A3A3"/>
<path d="M450.432 708.575L436.589 694.735L469.812 661.521L483.655 675.361L450.432 708.575ZM424.13 682.28L410.287 668.441L443.51 635.226L457.353 649.066L424.13 682.28ZM396.444 654.602L382.601 640.762L415.824 607.547L429.667 621.387L396.444 654.602ZM370.142 628.306L356.299 614.467L389.522 581.252L403.366 595.092L370.142 628.306ZM342.456 600.628L328.613 586.788L361.836 553.574L375.679 567.413L342.456 600.628ZM316.154 574.333L302.311 560.493L335.534 527.279L349.377 541.119L316.154 574.333ZM288.468 546.654L274.625 532.815L307.848 499.601L321.691 513.44L288.468 546.654ZM262.166 520.36L248.323 506.52L281.546 473.306L295.389 487.145L262.166 520.36ZM234.48 492.681L220.637 478.842L253.86 445.627L267.703 459.466L234.48 492.681ZM208.178 466.386L194.335 452.546L227.559 419.333L241.402 433.172L208.178 466.386ZM180.492 438.707L166.649 424.868L199.873 391.654L213.716 405.493L180.492 438.707ZM154.191 412.413L140.348 398.574L173.571 365.359L187.414 379.198L154.191 412.413ZM126.505 384.734L112.662 370.895L145.885 337.68L159.728 351.519L126.505 384.734ZM100.202 358.439L86.3594 344.6L119.583 311.385L133.426 325.224L100.202 358.439ZM72.5164 330.76L58.6733 316.921L91.897 283.706L105.74 297.546L72.5164 330.76ZM46.2147 304.465L32.3716 290.626L65.5949 257.412L79.4379 271.251L46.2147 304.465ZM18.5286 276.786L4.68555 262.947L37.9088 229.733L51.7518 243.573L18.5286 276.786Z" fill="#A3A3A3"/>
<path d="M497.497 736.257L480.885 719.65L471.195 729.338L464.273 722.418L473.963 712.73L464.273 703.043L471.195 696.124L480.885 705.811L497.497 689.204L519.646 712.73L497.497 736.257Z" fill="#A3A3A3"/>
<path d="M37.9088 1194.34L4.68555 1161.12L18.5286 1147.28L51.7518 1180.5L37.9088 1194.34ZM65.5949 1168.04L32.3716 1134.83L46.2147 1120.99L79.4379 1154.2L65.5949 1168.04ZM91.897 1140.36L58.6733 1107.15L72.5164 1093.31L105.74 1126.52L91.897 1140.36ZM119.583 1114.07L86.3594 1080.86L100.202 1067.02L133.426 1100.23L119.583 1114.07ZM145.885 1086.39L112.662 1053.18L126.505 1039.34L159.728 1072.55L145.885 1086.39ZM173.571 1060.1L140.348 1026.88L154.191 1013.04L187.414 1046.26L173.571 1060.1ZM199.873 1032.42L166.649 999.203L180.492 985.363L213.716 1018.58L199.873 1032.42ZM227.559 1006.12L194.335 972.908L208.178 959.069L241.402 992.283L227.559 1006.12ZM253.86 978.444L220.637 945.23L234.48 931.39L267.703 964.604L253.86 978.444ZM281.546 952.149L248.323 918.935L262.166 905.095L295.389 938.31L281.546 952.149ZM307.848 924.471L274.625 891.256L288.468 877.416L321.691 910.631L307.848 924.471ZM335.534 898.176L302.311 864.961L316.154 851.121L349.377 884.336L335.534 898.176ZM361.836 870.497L328.613 837.282L342.456 823.443L375.679 856.657L361.836 870.497ZM389.522 844.202L356.299 810.988L370.142 797.148L403.366 830.362L389.522 844.202ZM415.824 816.523L382.601 783.309L396.444 769.47L429.667 802.684L415.824 816.523ZM443.51 790.229L410.287 757.014L424.13 743.175L457.353 776.389L443.51 790.229ZM469.812 762.55L436.589 729.335L450.432 715.496L483.655 748.711L469.812 762.55Z" fill="#A3A3A3"/>
<path d="M1.17736 1018.73L307.555 712.438L1.17736 406.142L-305.2 712.438L1.17736 1018.73Z" fill="#A3A3A3"/>
</g>
</svg>
