<svg width="717" height="1424" viewBox="0 0 717 1424" fill="none" xmlns="http://www.w3.org/2000/svg">
<g opacity="0.15">
<path d="M711.573 30.2797L29.3203 712.351L711.573 1394.42L1393.83 712.351L711.573 30.2797Z" fill="#3D3D3D"/>
<path d="M712.917 1425.45L690.768 1404.69L705.995 1389.47L697.689 1379.78L703.226 1374.24L712.917 1382.55L721.222 1374.24L726.76 1379.78L718.454 1389.47L733.681 1404.69L712.917 1425.45Z" fill="#A3A3A3"/>
<path d="M678.309 1390.86L665.85 1378.4L696.304 1347.96L708.763 1360.41L678.309 1390.86ZM653.391 1365.95L640.932 1353.49L671.387 1323.04L683.846 1335.5L653.391 1365.95ZM628.474 1341.04L616.015 1328.58L646.469 1298.13L658.928 1310.59L628.474 1341.04ZM602.172 1316.12L589.713 1303.67L620.168 1273.22L632.626 1285.68L602.172 1316.12ZM577.254 1289.83L564.795 1277.37L595.25 1246.93L607.709 1259.38L577.254 1289.83ZM552.337 1264.92L539.878 1252.46L570.333 1222.02L582.791 1234.47L552.337 1264.92ZM527.419 1240.01L514.96 1227.55L545.415 1197.11L557.874 1209.56L527.419 1240.01ZM501.117 1215.1L488.659 1202.64L519.114 1172.2L531.572 1184.65L501.117 1215.1ZM476.2 1188.8L463.741 1176.35L494.196 1145.9L506.655 1158.36L476.2 1188.8ZM451.282 1163.89L438.824 1151.44L469.279 1120.99L481.737 1133.45L451.282 1163.89ZM424.981 1138.98L412.522 1126.53L442.977 1096.08L455.436 1108.53L424.981 1138.98ZM400.063 1112.69L387.605 1100.23L418.059 1069.78L430.518 1082.24L400.063 1112.69ZM375.146 1087.78L362.687 1075.32L393.142 1044.87L405.6 1057.33L375.146 1087.78ZM350.228 1062.86L337.77 1050.41L368.224 1019.96L380.683 1032.42L350.228 1062.86ZM323.927 1037.95L311.468 1025.5L341.922 995.051L354.381 1007.51L323.927 1037.95ZM299.009 1011.66L286.55 999.203L317.005 968.756L329.464 981.212L299.009 1011.66ZM274.092 986.748L261.633 974.292L292.087 943.846L304.546 956.301L274.092 986.748ZM249.174 961.837L236.715 949.382L267.17 918.935L279.629 931.391L249.174 961.837ZM222.872 936.926L210.413 924.471L240.868 894.024L253.327 906.479L222.872 936.926ZM197.955 910.632L185.496 898.176L215.951 867.729L228.41 880.185L197.955 910.632ZM173.037 885.72L160.578 873.265L191.033 842.819L203.492 855.274L173.037 885.72ZM146.735 860.81L134.277 848.355L164.732 817.908L177.19 830.363L146.735 860.81ZM121.818 835.899L109.359 823.443L139.814 792.997L152.273 805.452L121.818 835.899ZM96.9007 809.604L84.4417 797.149L114.897 766.702L127.355 779.158L96.9007 809.604ZM71.983 784.693L59.5244 772.238L89.9792 741.791L102.438 754.246L71.983 784.693ZM45.6813 759.782L33.2227 747.327L63.6771 716.881L76.1362 729.336L45.6813 759.782Z" fill="#A3A3A3"/>
<path d="M20.7646 733.487L0 712.728L20.7646 691.969L35.9916 707.193L44.2975 697.505L51.219 704.425L41.5291 712.728L51.219 721.032L44.2975 727.952L35.9916 719.648L20.7646 733.487Z" fill="#A3A3A3"/>
<path d="M63.6771 708.578L33.2227 678.131L45.6813 665.676L76.1362 696.123L63.6771 708.578ZM88.5948 683.667L58.14 653.22L70.5986 640.766L101.053 671.211L88.5948 683.667ZM113.512 658.757L83.0577 628.31L95.5164 615.854L125.971 646.301L113.512 658.757ZM139.814 632.461L109.359 602.015L121.818 589.56L152.273 620.007L139.814 632.461ZM164.732 607.551L134.277 577.104L146.735 564.649L177.19 595.095L164.732 607.551ZM189.649 582.64L159.194 552.193L171.653 539.738L202.108 570.184L189.649 582.64ZM215.951 557.729L185.496 527.283L197.955 514.827L228.41 545.274L215.951 557.729ZM240.868 531.434L210.413 500.988L222.872 488.533L253.327 518.979L240.868 531.434ZM265.786 506.524L235.331 476.077L247.79 463.621L278.244 494.068L265.786 506.524ZM290.703 481.613L260.248 451.166L272.707 438.71L303.162 469.157L290.703 481.613ZM317.005 456.701L286.55 426.256L299.009 413.8L329.464 444.247L317.005 456.701ZM341.922 430.407L311.468 399.96L323.927 387.505L354.381 417.951L341.922 430.407ZM366.84 405.497L336.385 375.05L348.844 362.594L379.299 393.041L366.84 405.497ZM391.757 380.585L361.303 350.139L373.762 337.683L404.216 368.13L391.757 380.585ZM418.059 355.674L387.605 325.228L400.063 312.773L430.518 343.219L418.059 355.674ZM442.977 329.38L412.522 298.933L424.981 286.478L455.436 316.924L442.977 329.38ZM467.894 304.469L437.439 274.023L449.898 261.567L480.353 292.014L467.894 304.469ZM492.811 279.558L462.357 249.111L474.816 236.656L505.271 267.103L492.811 279.558ZM519.114 253.264L488.659 222.817L501.117 210.361L531.572 240.808L519.114 253.264ZM544.031 228.352L513.576 197.906L526.035 185.45L556.49 215.897L544.031 228.352ZM568.948 203.441L538.494 172.995L550.952 160.54L581.407 190.987L568.948 203.441ZM595.25 178.531L564.795 148.084L577.254 135.629L607.709 166.075L595.25 178.531ZM620.168 152.236L589.713 121.79L602.172 109.334L632.626 139.781L620.168 152.236ZM645.085 127.325L614.631 96.8782L627.089 84.4233L657.544 114.87L645.085 127.325ZM670.003 102.414L639.548 71.9676L652.006 59.5126L682.461 89.9586L670.003 102.414ZM696.304 77.5036L665.85 47.0569L678.309 34.6011L708.763 65.0479L696.304 77.5036Z" fill="#A3A3A3"/>
<path d="M721.222 51.2058L712.917 42.9025L703.226 51.2058L697.689 45.6706L705.995 35.9828L690.768 22.1435L712.917 0L733.681 22.1435L718.454 35.9828L726.76 45.6706L721.222 51.2058Z" fill="#A3A3A3"/>
<path d="M746.14 1390.86L715.686 1360.41L728.144 1347.96L758.599 1378.4L746.14 1390.86ZM771.058 1365.95L740.603 1335.5L753.062 1323.04L783.516 1353.49L771.058 1365.95ZM797.359 1341.04L766.905 1310.59L779.364 1298.13L809.819 1328.58L797.359 1341.04ZM822.277 1316.12L791.822 1285.68L804.281 1273.22L834.736 1303.67L822.277 1316.12ZM847.194 1289.83L816.74 1259.38L829.199 1246.93L859.653 1277.37L847.194 1289.83ZM872.112 1264.92L841.657 1234.47L854.116 1222.02L884.571 1252.46L872.112 1264.92ZM898.414 1240.01L867.959 1209.56L880.418 1197.11L910.873 1227.55L898.414 1240.01ZM923.331 1215.1L892.877 1184.65L905.335 1172.2L935.79 1202.64L923.331 1215.1ZM948.249 1188.8L917.794 1158.36L930.253 1145.9L960.708 1176.35L948.249 1188.8ZM973.166 1163.89L942.711 1133.45L955.17 1120.99L985.625 1151.44L973.166 1163.89ZM999.468 1138.98L969.014 1108.53L981.472 1096.08L1011.93 1126.53L999.468 1138.98ZM1024.39 1112.69L993.931 1082.24L1006.39 1069.78L1036.84 1100.23L1024.39 1112.69ZM1049.3 1087.78L1018.85 1057.33L1031.31 1044.87L1061.76 1075.32L1049.3 1087.78ZM1075.6 1062.86L1045.15 1032.42L1057.61 1019.96L1088.06 1050.41L1075.6 1062.86ZM1100.52 1037.95L1070.07 1007.51L1082.53 995.051L1112.98 1025.5L1100.52 1037.95ZM1125.44 1011.66L1094.98 981.212L1107.44 968.756L1137.9 999.203L1125.44 1011.66ZM1150.36 986.748L1119.9 956.301L1132.36 943.846L1162.82 974.292L1150.36 986.748ZM1176.66 961.837L1146.2 931.391L1158.66 918.935L1189.12 949.382L1176.66 961.837ZM1201.58 936.926L1171.12 906.479L1183.58 894.024L1214.04 924.471L1201.58 936.926ZM1226.49 910.632L1196.04 880.185L1208.5 867.729L1238.95 898.176L1226.49 910.632ZM1251.41 885.72L1220.96 855.274L1233.42 842.819L1263.87 873.265L1251.41 885.72ZM1277.71 860.81L1247.26 830.363L1259.72 817.908L1290.17 848.355L1277.71 860.81ZM1302.63 835.899L1272.18 805.452L1284.63 792.997L1315.09 823.443L1302.63 835.899ZM1327.55 809.604L1297.09 779.158L1309.55 766.702L1340.01 797.149L1327.55 809.604ZM1353.85 784.693L1323.4 754.246L1335.85 741.791L1366.31 772.238L1353.85 784.693ZM1378.77 759.782L1348.31 729.336L1360.77 716.881L1391.23 747.327L1378.77 759.782Z" fill="#A3A3A3"/>
<path d="M712.916 1231.7L689.383 1208.18L705.995 1191.57L696.304 1181.88L703.226 1176.35L712.916 1184.65L721.222 1176.35L728.143 1181.88L719.838 1191.57L735.065 1208.18L712.916 1231.7Z" fill="#A3A3A3"/>
<path d="M675.541 1194.34L661.698 1180.5L694.921 1147.28L708.764 1161.12L675.541 1194.34ZM649.239 1168.04L635.396 1154.2L668.62 1120.99L682.463 1134.83L649.239 1168.04ZM621.553 1140.36L607.71 1126.52L640.934 1093.31L654.777 1107.15L621.553 1140.36ZM595.252 1114.07L581.409 1100.23L614.632 1067.02L628.475 1080.86L595.252 1114.07ZM567.566 1086.39L553.723 1072.55L586.946 1039.34L600.789 1053.18L567.566 1086.39ZM541.263 1060.1L527.42 1046.26L560.644 1013.04L574.487 1026.88L541.263 1060.1ZM513.577 1032.42L499.734 1018.58L532.958 985.363L546.801 999.203L513.577 1032.42ZM487.276 1006.12L473.433 992.283L506.656 959.069L520.499 972.908L487.276 1006.12ZM459.59 978.444L445.747 964.604L478.97 931.39L492.813 945.23L459.59 978.444ZM433.288 952.149L419.445 938.31L452.668 905.095L466.511 918.935L433.288 952.149ZM405.602 924.471L391.759 910.631L424.982 877.416L438.825 891.256L405.602 924.471ZM379.3 898.176L365.457 884.336L398.68 851.121L412.523 864.961L379.3 898.176ZM351.614 870.497L337.771 856.657L370.994 823.443L384.837 837.282L351.614 870.497ZM325.312 844.202L311.469 830.362L344.692 797.148L358.535 810.988L325.312 844.202ZM297.626 816.523L283.783 802.684L317.006 769.47L330.849 783.309L297.626 816.523ZM271.324 790.229L257.481 776.389L290.705 743.175L304.548 757.014L271.324 790.229ZM243.638 762.55L229.795 748.711L263.019 715.496L276.862 729.335L243.638 762.55Z" fill="#A3A3A3"/>
<path d="M217.336 736.257L193.803 712.73L217.336 689.204L232.563 705.811L242.253 696.124L249.175 703.043L239.485 712.73L249.175 722.418L242.253 729.338L232.563 719.65L217.336 736.257Z" fill="#A3A3A3"/>
<path d="M263.019 708.575L229.795 675.361L243.638 661.521L276.862 694.735L263.019 708.575ZM289.32 682.28L256.097 649.066L269.94 635.226L303.163 668.441L289.32 682.28ZM317.006 654.602L283.783 621.387L297.626 607.547L330.849 640.762L317.006 654.602ZM343.308 628.306L310.085 595.092L323.928 581.252L357.151 614.467L343.308 628.306ZM370.994 600.628L337.771 567.413L351.614 553.574L384.837 586.788L370.994 600.628ZM397.296 574.333L364.073 541.119L377.916 527.279L411.139 560.493L397.296 574.333ZM424.982 546.654L391.759 513.44L405.602 499.601L438.825 532.815L424.982 546.654ZM451.284 520.36L418.06 487.145L431.903 473.306L465.127 506.52L451.284 520.36ZM478.97 492.681L445.747 459.466L459.59 445.627L492.813 478.842L478.97 492.681ZM505.272 466.386L472.048 433.172L485.891 419.333L519.115 452.546L505.272 466.386ZM532.958 438.707L499.734 405.493L513.577 391.654L546.801 424.868L532.958 438.707ZM559.26 412.413L526.036 379.198L539.879 365.359L573.103 398.574L559.26 412.413ZM586.946 384.734L553.723 351.519L567.566 337.68L600.789 370.895L586.946 384.734ZM613.247 358.439L580.024 325.224L593.867 311.385L627.09 344.6L613.247 358.439ZM640.934 330.76L607.71 297.546L621.553 283.706L654.777 316.921L640.934 330.76ZM667.235 304.465L634.012 271.251L647.855 257.412L681.078 290.626L667.235 304.465ZM694.921 276.786L661.698 243.573L675.541 229.733L708.764 262.947L694.921 276.786Z" fill="#A3A3A3"/>
<path d="M703.226 250.495L696.304 243.575L705.995 233.887L689.383 217.28L712.916 193.753L735.065 217.28L719.838 233.887L728.143 243.575L721.222 250.495L712.916 240.807L703.226 250.495Z" fill="#A3A3A3"/>
<path d="M1161.43 708.575L1147.59 694.735L1180.81 661.521L1194.65 675.361L1161.43 708.575ZM1135.13 682.28L1121.29 668.441L1154.51 635.226L1168.35 649.066L1135.13 682.28ZM1107.44 654.602L1093.6 640.762L1126.82 607.547L1140.67 621.387L1107.44 654.602ZM1081.14 628.306L1067.3 614.467L1100.52 581.252L1114.37 595.092L1081.14 628.306ZM1053.46 600.628L1039.61 586.788L1072.84 553.574L1086.68 567.413L1053.46 600.628ZM1027.15 574.333L1013.31 560.493L1046.53 527.279L1060.38 541.119L1027.15 574.333ZM999.468 546.654L985.625 532.815L1018.85 499.601L1032.69 513.44L999.468 546.654ZM973.166 520.36L959.323 506.52L992.546 473.306L1006.39 487.145L973.166 520.36ZM945.48 492.681L931.637 478.842L964.86 445.627L978.703 459.466L945.48 492.681ZM919.178 466.386L905.335 452.546L938.559 419.333L952.402 433.172L919.178 466.386ZM891.492 438.707L877.649 424.868L910.873 391.654L924.716 405.493L891.492 438.707ZM865.191 412.413L851.348 398.574L884.571 365.359L898.414 379.198L865.191 412.413ZM837.505 384.734L823.662 370.895L856.885 337.68L870.728 351.519L837.505 384.734ZM811.202 358.439L797.359 344.6L830.583 311.385L844.426 325.224L811.202 358.439ZM783.516 330.76L769.673 316.921L802.897 283.706L816.74 297.546L783.516 330.76ZM757.215 304.465L743.372 290.626L776.595 257.412L790.438 271.251L757.215 304.465ZM729.529 276.786L715.686 262.947L748.909 229.733L762.752 243.573L729.529 276.786Z" fill="#A3A3A3"/>
<path d="M748.909 1194.34L715.686 1161.12L729.529 1147.28L762.752 1180.5L748.909 1194.34ZM776.595 1168.04L743.372 1134.83L757.215 1120.99L790.438 1154.2L776.595 1168.04ZM802.897 1140.36L769.673 1107.15L783.516 1093.31L816.74 1126.52L802.897 1140.36ZM830.583 1114.07L797.359 1080.86L811.202 1067.02L844.426 1100.23L830.583 1114.07ZM856.885 1086.39L823.662 1053.18L837.505 1039.34L870.728 1072.55L856.885 1086.39ZM884.571 1060.1L851.348 1026.88L865.191 1013.04L898.414 1046.26L884.571 1060.1ZM910.873 1032.42L877.649 999.203L891.492 985.363L924.716 1018.58L910.873 1032.42ZM938.559 1006.12L905.335 972.908L919.178 959.069L952.402 992.283L938.559 1006.12ZM964.86 978.444L931.637 945.23L945.48 931.39L978.703 964.604L964.86 978.444ZM992.546 952.149L959.323 918.935L973.166 905.095L1006.39 938.31L992.546 952.149ZM1018.85 924.471L985.625 891.256L999.468 877.416L1032.69 910.631L1018.85 924.471ZM1046.53 898.176L1013.31 864.961L1027.15 851.121L1060.38 884.336L1046.53 898.176ZM1072.84 870.497L1039.61 837.282L1053.46 823.443L1086.68 856.657L1072.84 870.497ZM1100.52 844.202L1067.3 810.988L1081.14 797.148L1114.37 830.362L1100.52 844.202ZM1126.82 816.523L1093.6 783.309L1107.44 769.47L1140.67 802.684L1126.82 816.523ZM1154.51 790.229L1121.29 757.014L1135.13 743.175L1168.35 776.389L1154.51 790.229ZM1180.81 762.55L1147.59 729.335L1161.43 715.496L1194.65 748.711L1180.81 762.55Z" fill="#A3A3A3"/>
<path d="M712.177 1018.73L1018.55 712.438L712.177 406.142L405.8 712.438L712.177 1018.73Z" fill="#A3A3A3"/>
</g>
</svg>
